<svg xmlns="http://www.w3.org/2000/svg" viewBox="0 0 359 356.5">
  <linearGradient
    id="a"
    gradientUnits="userSpaceOnUse"
    x1="5.6"
    y1="178.6"
    x2="353.4"
    y2="178.6"
  >
    <stop offset="0" stop-color="#231f20" />
    <stop offset=".7" stop-color="#474648" />
    <stop offset="1" stop-color="#58595b" />
  </linearGradient>
  <circle cx="179.5" cy="178.6" r="173.9" fill="url(#a)" />
  <circle fill="#231f20" cx="179.5" cy="178.6" r="134.9" />
  <path
    fill="#fff"
    d="M70.5 291c.4-.5.7-1 .6-1.6s-.4-1.5-1-2.7A9 9 0 0169 284c-.2-1 0-1.8.7-2.5s1.5-.9 2.4-.8c1 .2 1.9.7 2.7 1.5.6.6 1 1.2 1.2 1.8s.3 1.4.1 2c-.1.6-.5 1.2-1 1.7l-.7-.8c.6-.5.9-1.2.9-2 0-.7-.4-1.4-1.1-2.1-.7-.7-1.3-1-2-1.1-.7-.1-1.3 0-1.7.5-.5.4-.6 1-.6 1.6.1.6.4 1.4 1 2.4.5 1 .9 1.8 1 2.4.2.6.2 1.2.1 1.7s-.4 1-.8 1.4c-.7.7-1.5 1-2.4.8a5.8 5.8 0 01-4-3.5 3 3 0 01-.3-2c.1-.7.4-1.3 1-1.8l.7.7c-.6.6-.9 1.3-.8 2.1a4 4 0 001.3 2.3c.6.7 1.3 1.1 2 1.2a2 2 0 001.8-.5zm10.8 6.5a7 7 0 01-2.3 1.8 4.4 4.4 0 01-4.9-.7c-1-1-1.5-2-1.5-3.4a6 6 0 011.7-4l.8-.9c.7-.8 1.5-1.4 2.4-1.8.8-.4 1.7-.5 2.5-.4.8.2 1.6.5 2.3 1.1.7.7 1.2 1.4 1.4 2.2.3.8.2 1.6 0 2.5s-.7 1.7-1.4 2.5l-1 1.1zm.1-1.6a5 5 0 001.5-3.3c0-1-.3-2-1.2-2.7-.8-.7-1.8-1-2.8-.8-1 .2-2 .8-3 2l-.9.9a5 5 0 00-1.5 3.2 3.6 3.6 0 004.1 3.6c1-.1 2-.9 3-2l.8-1zm7.9 9.7c-.9 1-1.8 1.5-2.9 1.5a4 4 0 01-3-1 4.3 4.3 0 01-1.5-2c-.3-.8-.3-1.6-.1-2.5.2-.8.6-1.7 1.2-2.6l1-1.2c.6-.9 1.3-1.5 2.1-2s1.6-.6 2.5-.5c.8 0 1.6.4 2.3 1 1 .7 1.6 1.6 1.8 2.6.2 1 0 2-.7 3.1l-.8-.6c1-1.8.8-3.3-.8-4.5-.9-.6-1.8-.8-2.8-.6s-2 1-2.8 2.2l-1 1.1a5.3 5.3 0 00-1.2 3.3 3 3 0 001.3 2.5c.9.6 1.7 1 2.4.8.7 0 1.5-.4 2.2-1.2l.8.6zm4.2 7.4l4.3-7-1.2-.8.4-.6 1.3.7.5-.9c.5-.7 1.1-1.2 1.8-1.4s1.3 0 2 .4l.8.7-.5.7-.7-.6c-.5-.3-1-.4-1.3-.3-.5.2-.9.5-1.2 1l-.6 1 1.8 1.1-.4.7-1.8-1.1-4.4 6.8-.8-.5zm6.2-1.6c.4-.7 1-1.3 1.6-1.7a3.8 3.8 0 014.1-.2c1 .6 1.7 1.4 2 2.5.2 1 0 2.2-.7 3.4l-.1.2c-.5.8-1 1.4-1.6 1.8a3.8 3.8 0 01-4.1.2c-1-.6-1.7-1.5-2-2.6-.2-1 0-2.2.7-3.4l.1-.2zm.8.8a4 4 0 00-.6 2.7c.1.9.6 1.5 1.4 2 .7.4 1.5.5 2.4.1.8-.3 1.5-1 2-2l.1-.1c.4-.6.6-1.2.6-1.8s0-1.2-.3-1.7c-.2-.5-.6-.9-1.1-1.2-.8-.4-1.6-.5-2.4-.1-.8.3-1.5 1-2 2h-.1zm13.4 2.8l-.6-.3c-.5-.2-1-.3-1.6-.2-.5.1-1 .4-1.5 1l-2.8 5.4-.8-.4 4-8 .9.4-.7 1.3c1-.7 2-.8 3-.3.3.1.4.3.5.4l-.4.8zm9.7 9.9a2 2 0 000-1.7c-.3-.6-1-1.2-2-2a9 9 0 01-2.1-2.1 3 3 0 01-.3-2.6c.4-.9 1-1.4 2-1.7.9-.2 1.9-.1 3 .3a6 6 0 011.8 1.3c.4.5.7 1 .9 1.7s0 1.3-.3 2l-1-.4c.4-.8.4-1.5 0-2.2-.3-.7-.9-1.2-1.8-1.6-.8-.3-1.6-.4-2.2-.2a2 2 0 00-1.4 1.2c-.2.5-.2 1 .1 1.6.3.6 1 1.2 1.8 1.9a11 11 0 012 1.8c.4.5.6 1 .7 1.5 0 .5 0 1-.2 1.6-.4.9-1 1.4-2 1.7-.8.2-1.9.1-3-.3a6 6 0 01-2-1.3c-.6-.6-1-1.2-1-1.8-.2-.7-.1-1.3.1-2l1 .4c-.3.8-.3 1.5.1 2.2a4 4 0 002 1.7c1 .3 1.7.4 2.4.2s1.2-.6 1.4-1.2zm5.4 5.2a3.9 3.9 0 01-2.6-3.1 5 5 0 01.2-2.3l.1-.4c.3-.8.7-1.5 1.2-2a4 4 0 011.9-1.1c.7-.2 1.3-.2 2 0 1 .4 1.7 1 2.1 2 .4.8.4 1.9 0 3.1l-.2.5-6-2-.2.2c-.3 1-.3 1.9 0 2.7s1 1.4 1.8 1.6c.5.2 1 .3 1.4.2a3 3 0 001.4-.5l.4.6c-1 .8-2.2 1-3.5.5zm2.5-8c-.7-.3-1.4-.2-2 .1a4 4 0 00-1.6 1.8l5.1 1.7c.3-.9.3-1.6 0-2.3s-.8-1.1-1.5-1.3zm9.1 2.9l-.6-.3c-.6-.2-1.1-.1-1.6 0-.6.3-1 .7-1.3 1.3l-1.7 6-1-.4 2.5-8.6 1 .3-.5 1.4c.8-1 1.8-1.2 2.9-.9l.6.3-.3.9zm2.9 7.6l4.3-6.8 1 .3-5.3 8-.7-.3-1.3-9.4 1 .2 1 8zm6.3 2.7l-1-.2 1.7-8.8 1 .2-1.7 8.8zm1-11.5c0-.2.1-.4.3-.5h.5c.2 0 .4 0 .5.2v.5c0 .2 0 .3-.2.4-.2.1-.3.2-.5.1-.2 0-.4 0-.5-.2a.6.6 0 010-.5zm5.3 11.9c.7.1 1.3 0 1.8-.3a2 2 0 001-1.4l1 .1c-.2.6-.4 1-.8 1.4a5 5 0 01-1.4 1H156c-1.2-.1-2-.7-2.6-1.6s-.7-2-.5-3.4v-.3c.1-.9.4-1.6.8-2.2.4-.7 1-1.1 1.6-1.4s1.3-.4 2-.2a3 3 0 012.3 1.2c.6.7.8 1.5.7 2.4l-1-.1c.1-.7 0-1.3-.4-1.8s-1-.8-1.7-.9c-.9-.1-1.6 0-2.2.6-.6.6-1 1.5-1.1 2.6v.3c-.2 1.1-.1 2 .3 2.8.4.7 1 1 2 1.2zm9.2 1.9a4 4 0 01-3.3-2.4 5 5 0 01-.3-2.3v-.3c0-1 .3-1.7.7-2.3.4-.7 1-1.2 1.6-1.5s1.2-.5 2-.4c1 0 1.8.5 2.4 1.3.6.8.8 1.8.7 3.1v.6l-6.4-.6v.2c-.1 1 0 1.9.6 2.6s1.2 1.1 2 1.2c.6 0 1 0 1.5-.2.4-.1.8-.4 1.2-.8l.6.5c-.8 1-2 1.5-3.3 1.3zm.6-8.4c-.8 0-1.4.1-2 .7a3 3 0 00-1.1 2l5.3.5c.1-1 0-1.6-.5-2.2a2 2 0 00-1.7-1zm18.6 3.4a7 7 0 01-.5 3 4.4 4.4 0 01-4 2.6c-1.5 0-2.6-.4-3.5-1.4a6 6 0 01-1.4-4v-1.3c0-1.1.2-2 .5-3 .4-.8 1-1.4 1.7-2 .7-.4 1.5-.6 2.4-.6s1.8.2 2.5.6c.7.4 1.2 1 1.6 1.9.4.8.7 1.7.7 2.8v1.4zm-1-1.3c0-1.4-.4-2.5-1-3.3s-1.6-1.3-2.8-1.2c-1 0-2 .4-2.6 1.2-.7.9-1 2-1 3.5v1.3c0 1.4.4 2.5 1.1 3.4s1.6 1.2 2.7 1.2c1.2 0 2-.5 2.7-1.3.6-.9 1-2 1-3.5l-.1-1.3zm7.4-1.7h-.7a2 2 0 00-1.5.6c-.4.3-.7.9-.8 1.5l.3 6.2h-1l-.5-9h1v1.4c.6-1 1.4-1.6 2.5-1.7h.7v1zm1.5 3.4c-.1-1.3 0-2.5.6-3.4s1.3-1.4 2.4-1.5c1.2 0 2.2.3 2.9 1.2l-.1-1.3 1-.1.8 8.7c.2 1.2 0 2.1-.6 2.9-.6.7-1.4 1.1-2.5 1.2a3.9 3.9 0 01-3.3-1.2l.5-.6c.8.8 1.7 1.1 2.6 1 .8 0 1.5-.4 1.9-1s.5-1.2.5-2l-.2-1.1c-.5 1-1.4 1.4-2.6 1.6a3 3 0 01-2.6-1 5.4 5.4 0 01-1.3-3.2v-.2zm1 .1c.2 1.1.5 2 1 2.6.5.6 1.2.9 2 .8 1.2-.1 2-.8 2.4-1.9l-.4-4.1c-.3-.6-.7-1-1.1-1.2s-1-.4-1.7-.3c-.8 0-1.4.5-1.8 1.2a5 5 0 00-.4 3zm15.3 2.3l-.4-1.2c-.3.5-.7 1-1.1 1.3-.5.3-1 .5-1.7.6-.8.2-1.5 0-2.1-.3s-1-1-1.1-1.7c-.2-.8 0-1.6.7-2.2a6 6 0 012.9-1.3l1.7-.3-.1-1a2 2 0 00-.9-1.4c-.4-.3-1-.3-1.8-.2-.6.1-1.2.4-1.6.8s-.5.9-.4 1.4l-1 .1c-.1-.7.1-1.3.7-2 .5-.6 1.3-1 2.2-1.1 1-.2 1.9 0 2.5.3s1 1 1.2 2l.7 4.1.6 1.9-1 .2zm-3.2-.1c.7-.2 1.2-.4 1.7-.8s.7-.9.9-1.5l-.3-2-1.8.4c-1 .2-1.7.5-2.2 1-.5.4-.7.9-.6 1.5.1.5.4.9.8 1.1.4.3 1 .4 1.5.3zm5.9-9.5l.4 1.4c.2-.6.5-1 1-1.5.3-.4.9-.6 1.4-.8 1-.2 1.7-.1 2.3.3.6.4 1 1.2 1.3 2.2l1.3 5.8-1 .2-1.3-5.8c-.2-.7-.5-1.3-.9-1.6-.4-.3-1-.4-1.7-.2-.6.1-1 .5-1.4 1s-.6 1-.7 1.7l1.4 6-1 .2-2-8.7 1-.2zm7.3-4.5v-.5c.2-.2.3-.3.5-.3h.5l.3.4v.5c0 .2-.2.3-.4.4l-.6-.1a.6.6 0 01-.3-.4zM223 332l-1 .3-2.4-8.7 1-.2 2.3 8.6zm3.2-1.7l5.5-1.8.3.8-6.7 2.2-.2-.7 2.9-8.7-5 1.6-.3-.8 6.2-2 .2.7-3 8.7zm13.2-3.8a5 5 0 01-.7-1.1c-.1.6-.4 1-.8 1.5-.4.4-1 .7-1.5 1a3 3 0 01-2.2 0c-.7-.3-1.1-.7-1.4-1.4-.3-.8-.2-1.6.3-2.3.5-.8 1.3-1.4 2.5-1.8l1.7-.7-.4-1a2 2 0 00-1-1.1 3 3 0 00-1.9 0 4 4 0 00-1.4 1.2c-.3.5-.3 1-.1 1.4l-1 .4c-.2-.7-.1-1.4.3-2.1a3 3 0 012-1.6c1-.4 1.7-.4 2.5-.2.7.3 1.2.8 1.5 1.6l1.6 4c.3.8.6 1.4 1 1.7l-1 .5zm-3.2.5c.6-.3 1.1-.6 1.5-1.1.3-.5.5-1 .6-1.6l-.7-1.9-1.7.7c-.9.3-1.6.8-2 1.3-.3.5-.4 1-.2 1.6.2.5.5.8 1 1 .4.2 1 .2 1.5 0zm3.5-12.9l1 2.1 1.6-.7.3.7-1.6.8 2.4 5.4c.2.5.4.8.7 1s.6 0 1-.1l.7-.4.3.7-.9.6c-.6.3-1.1.3-1.6 0-.4-.2-.8-.7-1.1-1.4l-2.4-5.4-1.6.6-.3-.7 1.5-.7-1-2 1-.5zm3.3-1.8v-.5c0-.2 0-.3.3-.4h.5c.2 0 .3.1.4.3v.5c0 .2-.2.3-.3.4h-.6c-.2 0-.3-.1-.4-.3zm6 9.9l-.9.4-3.9-8 1-.5 3.8 8zm0-5.2a9 9 0 01-.6-2.2 3.8 3.8 0 012-3.6c1.1-.6 2.2-.7 3.2-.3a5 5 0 012.6 2.4v.2c.5.8.7 1.6.7 2.3s0 1.5-.4 2.1c-.4.6-1 1.1-1.6 1.5a4.2 4.2 0 01-5.7-2.2l-.1-.1zm1-.2c.6 1 1.3 1.6 2 2 .9.3 1.7.3 2.5-.2.8-.4 1.2-1 1.4-1.9.2-.9 0-1.8-.5-2.8l-.1-.2c-.4-.6-.8-1-1.3-1.4a3 3 0 00-1.5-.7c-.6 0-1.1 0-1.6.3-.8.4-1.3 1-1.4 2-.2.8 0 1.8.5 2.8v.1zm6.6-8.8l.8 1.2c0-.6.1-1.2.4-1.7.3-.5.7-1 1.2-1.2.8-.6 1.6-.7 2.3-.5.6.2 1.3.8 1.8 1.7l3.1 5-.8.5-3.1-5c-.4-.7-.9-1-1.4-1.2-.5-.2-1 0-1.7.3-.5.3-.8.8-1 1.4-.2.5-.3 1.2-.1 1.8l3.2 5.3-.8.5-4.7-7.6.8-.5zm15.2-2.1c-.3-.4-.7-.6-1.2-.6s-1 .1-1.8.4l-1.9.6h-1.2a2 2 0 01-1-.8 2 2 0 01-.2-2c.2-.7.7-1.3 1.4-1.8.8-.6 1.6-.9 2.4-.8.8 0 1.4.4 1.9 1l-.8.6c-.3-.4-.8-.7-1.3-.7-.6 0-1.1.2-1.7.5-.5.4-.9.8-1 1.3-.2.5-.1.9.1 1.3.3.3.6.5 1 .5l2-.4c1-.3 1.4-.6 1.9-.6l1.3.1.9.8c.4.6.5 1.3.3 2a4 4 0 01-1.6 2 4 4 0 01-2.5.8c-.8 0-1.4-.4-1.9-1l.8-.6c.4.4.9.7 1.4.7s1.1-.2 1.7-.6c.6-.4 1-.9 1.2-1.4s0-1-.2-1.3zm13.2-4.6l-.7.5L275 291l.6-.5 9.3 10.9zm9.2-16.3c-.4-.4-.8-.5-1.3-.5-.5.1-1.1.4-2 .9l-2.3 1c-1.3.3-2.3 0-3.1-.7a3 3 0 01-1-2.5c.2-1 .7-2 1.5-2.9.6-.6 1.2-1 2-1.3a3.5 3.5 0 013.7.7l-1.4 1.5c-.5-.4-1-.6-1.5-.6-.6 0-1 .4-1.6.9-.5.5-.7 1-.8 1.5 0 .4.1.8.5 1.2.3.3.7.4 1.2.3.5 0 1.2-.3 2-.8l2.3-1c.7-.2 1.2-.2 1.8 0s1 .4 1.4.8c.7.7 1 1.5 1 2.5a5 5 0 01-1.6 2.8c-.6.7-1.3 1.1-2 1.4s-1.4.5-2.1.4-1.4-.5-2-1l1.5-1.5c.5.5 1 .7 1.7.6a3 3 0 001.7-1c.5-.5.8-1 .8-1.5s0-.9-.4-1.2zm7.8-3.9c-.9 1-1.9 1.5-3 1.6-1.1 0-2.2-.3-3.2-1.2l-.2-.1a5.5 5.5 0 01-1.5-2 4 4 0 01.6-4.1c.8-1 1.7-1.4 2.7-1.4 1 0 2 .4 3.2 1.3l.6.6-3.8 4.4c.6.5 1.2.7 1.8.6a2 2 0 001.6-.8c.6-.7.8-1.6.6-2.5l1.5-.1a3 3 0 010 1.9c-.2.6-.5 1.2-1 1.8zm-6.1-4.8c-.4.5-.5 1-.4 1.4 0 .5.3 1 .8 1.6l2.5-3h-.1c-.6-.5-1-.6-1.6-.6-.4 0-.8.2-1.2.6zm6.6-7.6l-.6.6c-.5.7-.6 1.4-.3 2l5 3.8-1.3 1.6-7.1-5.4 1.1-1.6.9.6a2 2 0 01.3-2.3l.5-.5 1.5 1.2zm6.4-1.2l-4.2-5.2 1.2-1.7 5.6 7.6-1 1.5-9.2-2.5 1.2-1.8 6.4 2zm-4.4-9.2a1 1 0 01-.5-.7c0-.2 0-.5.2-.8.2-.3.4-.5.7-.6.3 0 .6 0 .8.2.3.1.4.4.5.6 0 .3 0 .6-.2 1l-.7.5c-.3 0-.6 0-.8-.2zm10.7 4.2l-1 1.7-7.7-4.8 1.1-1.7 7.6 4.8zm1.9-6.1c.3-.4.3-.8.2-1.3s-.3-.7-.6-1l1-1.6a3.4 3.4 0 011.4 3 4 4 0 01-.6 1.7c-.6 1.1-1.4 1.8-2.5 2-1 .2-2.2 0-3.5-.7l-.2-.1c-1.1-.7-2-1.5-2.3-2.6-.3-1-.2-2 .4-3.2.6-.9 1.3-1.5 2.1-1.8 1-.3 1.8-.2 2.7.3l-1 1.7c-.4-.3-.9-.3-1.3-.2-.5.1-.8.4-1 .8-.4.6-.4 1.2-.2 1.7s.8 1 1.6 1.5l.3.2c.8.5 1.6.7 2.1.6s1-.4 1.4-1zm5.9-7.7a4.2 4.2 0 01-2.5 2.3c-1 .3-2.2.2-3.4-.4h-.2c-.8-.5-1.4-1-1.9-1.6s-.8-1.3-.8-2c-.1-.8 0-1.5.4-2.2.5-1 1.3-1.7 2.3-2a5 5 0 013.4.6l.7.4-2.6 5.2c.7.3 1.3.3 2 .1s1-.6 1.2-1.2c.4-.8.4-1.6 0-2.5l1.4-.5c.3.6.5 1.2.5 1.8 0 .7-.2 1.4-.5 2zm-7-3.1c-.2.5-.3 1 0 1.4.1.5.5 1 1 1.3l1.8-3.4h-.1c-.7-.3-1.2-.4-1.7-.3a2 2 0 00-1 1zm9.2-17.3c1.1.4 2 1 2.7 1.6.7.7 1.1 1.5 1.3 2.4a5 5 0 01-.3 2.7 4.7 4.7 0 01-4.1 3.1c-1 .1-2 0-3-.5l-.7-.2c-1.1-.4-2-1-2.7-1.7a4.6 4.6 0 01-1-5c.3-1 .8-1.7 1.5-2.3.7-.5 1.6-.8 2.6-.9 1 0 2 .1 3 .5l.7.3zm-1.3 1.7c-1.3-.5-2.3-.6-3.2-.4s-1.4.8-1.7 1.7c-.3.8-.3 1.6.2 2.3a6 6 0 002.6 1.8l.6.3c1.3.4 2.3.6 3.2.3s1.4-.7 1.7-1.6c.4-.9.3-1.7-.2-2.4s-1.4-1.3-2.6-1.8l-.6-.2zm1.9-8.6l-.3.8c-.3.9-.1 1.6.5 2l5.8 2-.6 1.8-8.5-2.6.5-1.9 1 .3c-.6-.7-.8-1.5-.5-2.3 0-.3.2-.5.3-.7l1.8.6zm2.8-.2c-1.3-.4-2.3-1-3-1.8-.6-.8-.8-1.8-.5-2.8a3 3 0 011.6-2.1l-.9-.3.5-1.8 8.4 2.2c1.1.3 2 .9 2.4 1.7.5 1 .6 2 .3 3.2-.2.6-.5 1.2-.9 1.7-.4.6-.9 1-1.4 1.1l-1-1.2c1-.4 1.5-1 1.7-2 .2-.6.1-1.1-.1-1.6-.3-.4-.7-.8-1.4-1l-.6-.1c.5.7.6 1.6.4 2.5-.3 1-1 1.7-1.9 2.2a5 5 0 01-3.6 0zm.7-2c.8.3 1.6.3 2.2 0 .5-.2 1-.6 1-1.2a2 2 0 00-.5-2l-3.8-1a2 2 0 00-1.4 1.5c-.2.6 0 1.2.4 1.7a4 4 0 002 1zm7.2-12.2h-.9c.6.8.8 1.6.6 2.5-.2.9-.6 1.6-1.2 2-.6.5-1.3.6-2 .5-1-.2-1.6-.7-2-1.5a5 5 0 01-.1-3l.2-1.3-.6-.1c-.5-.1-.8 0-1.2.2-.3.2-.5.5-.6 1l.1 1.2c.2.3.5.5.8.6l-.4 2c-.4-.1-.9-.4-1.2-.8l-.8-1.4v-2c.2-1 .6-1.8 1.3-2.3.6-.5 1.4-.7 2.3-.5l4 .8h2.1l-.4 2zm-1.8 1.8v-1.1c0-.4-.4-.7-.7-1l-1.7-.3-.2 1.1c-.1.7 0 1.3.1 1.7.2.4.5.7 1 .8.4 0 .7 0 1-.2.2-.2.4-.5.5-1zm-6.1-9.1h1c-.7-.7-1-1.6-.8-2.7.2-1.8 1.4-2.6 3.5-2.4l5.9.8-.3 2-5.7-.8c-.6 0-1 0-1.3.2-.3.2-.5.6-.6 1.2a2 2 0 00.9 2l6.3.7-.3 2-8.8-1.1.2-1.9zm-1.5-7.7a1 1 0 01-.7-.3c-.2-.2-.3-.5-.2-.9 0-.3.1-.6.3-.8s.5-.2.8-.2c.3 0 .6.1.8.4l.2.8c0 .4-.2.7-.4.8s-.5.3-.8.3zm11.5-1.1l-.2 2-9-.8.2-2 9 .8zm-1.3-4.7l.1-4.8h1.7l-.3 7.3h-1.4l-5.8-4.8-.2 4.4h-1.6l.3-7h1.3l5.9 4.9zM339 174c-.2.2-.5.3-.8.3.6.7 1 1.4 1 2.4 0 .9-.2 1.6-.7 2.2s-1.2.9-2 .9c-.9 0-1.6-.4-2.1-1-.6-.8-.8-1.8-.9-3v-1.3h-.6c-.4 0-.8.1-1 .4a2 2 0 00-.1 2.3c.2.3.5.5.9.4v2c-.5 0-1-.1-1.4-.4a4 4 0 01-1.4-3.2c0-1 .2-1.9.7-2.5s1.3-1 2.2-1h4c.9-.1 1.5-.2 2-.5h.1v2zm-1.4 2.3c0-.4-.2-.7-.4-1a2 2 0 00-.7-.9h-1.7v1.1c0 .8.1 1.3.4 1.7.3.4.6.6 1.1.6.4 0 .7-.2 1-.4.2-.3.3-.6.3-1zm-10.1-8.2l2.2-.1-.1-1.6 1.5-.1v1.6l5-.3c.4 0 .7-.2.8-.3.2-.1.2-.4.2-.7l-.1-.7 1.5-.1c.2.4.3.9.3 1.3 0 1.5-.7 2.3-2.4 2.5l-5 .3v1.5H330V170l-2.2.1-.2-2zm-.4-3a1 1 0 01-.7-.2c-.3-.2-.4-.4-.4-.8s0-.7.2-.9c.2-.2.4-.3.7-.3.3 0 .6 0 .8.2s.4.4.4.8 0 .6-.2.9a1 1 0 01-.8.3zm11-3.2l.3 2-9 .9-.1-2 8.9-.9zm-4.6-1.5c-.9.1-1.7 0-2.4-.2s-1.4-.6-1.9-1.2-.7-1.3-.8-2c-.2-1.3 0-2.3.7-3.1s1.6-1.5 2.9-1.7h.5c.8-.2 1.6-.1 2.4.1s1.3.6 1.8 1.2.8 1.3.9 2.1a4 4 0 01-.8 3.2c-.8.8-1.8 1.4-3.2 1.6h-.1zm-.1-2c.9-.1 1.6-.4 2-.9.5-.4.7-1 .6-1.7a2 2 0 00-1-1.4 4 4 0 00-2.4-.3c-1 .2-1.6.5-2 1-.5.4-.7 1-.6 1.6 0 .7.4 1.1 1 1.4.5.4 1.3.4 2.4.3zm-6.1-9.1l1-.2c-1-.5-1.5-1.3-1.8-2.3-.3-1.9.5-3 2.6-3.5l5.8-1.2.4 2-5.7 1.2c-.5.1-1 .3-1.1.6s-.3.7-.2 1.3a2 2 0 001.5 1.5l6.2-1.3.4 2-8.8 1.8-.4-1.8zm3.3-13.8c-.3 0-.6.3-.7.6v1.6l-.1 1.8c-.2 1-.8 1.7-1.7 2-.7.2-1.4 0-2-.5a3.9 3.9 0 01-1.5-2.1 4 4 0 010-2.8c.4-.7 1-1.2 1.8-1.5l.5 2c-.3 0-.6.3-.8.7-.2.3-.2.7 0 1.2 0 .4.3.7.5 1 .3.1.6.2 1 .1.2 0 .4-.3.5-.6l.1-1.6.1-2c.1-.5.3-.9.6-1.2.2-.3.6-.5 1-.6.9-.2 1.6 0 2.2.4.7.6 1.2 1.3 1.4 2.4.2.7.3 1.4.2 2-.1.6-.4 1.1-.7 1.6s-.8.7-1.3.8l-.6-1.9c.5-.1.8-.4 1-.8a2 2 0 000-1.3 2 2 0 00-.6-1.1 1 1 0 00-.9-.2zM119 142H94.5l-5.6 15.3h-4.8l20.5-54h4.3l20.5 54h-4.8L119 142zm-23-3.8h21.6l-10.9-29.4L96 138.2zm46.1 19.1h-4.5v-54h4.5v54zm52.2-16.9c-.6 5.7-2.6 10-6.1 13-3.5 3.1-8 4.6-13.8 4.6a19 19 0 01-17.8-11.5 30.3 30.3 0 01-2.5-12.6v-7c0-4.8.8-9 2.5-12.8a19 19 0 0118.1-11.6c5.8 0 10.4 1.5 13.8 4.7 3.3 3 5.3 7.4 5.8 13h-4.6c-1.1-9.3-6.1-13.9-15-13.9-4.9 0-8.8 1.9-11.7 5.5a24 24 0 00-4.3 15.2v6.6a24 24 0 004.2 15c2.8 3.7 6.7 5.6 11.5 5.6s8.4-1.2 10.8-3.5c2.4-2.3 4-5.7 4.5-10.3h4.6zm14.9-5.1v22h-4.6v-54H223a20 20 0 0113.4 4.2 15 15 0 014.8 11.9c0 5-1.5 9-4.7 11.7-3 2.8-7.6 4.2-13.6 4.2h-13.7zm0-3.9H223c4.5 0 7.8-1 10.2-3.2 2.3-2 3.5-5 3.5-8.8 0-3.7-1.2-6.7-3.5-9a14 14 0 00-9.9-3.3h-14.1v24.3zm65.5 10.6h-24.5l-5.6 15.3h-4.8l20.5-54h4.3l20.5 54h-4.8l-5.6-15.2zm-23.1-3.8h21.7l-10.9-29.4-10.8 29.4zm-101.7 93.6c0-3-1-5.4-3.2-7.2-2-1.7-6-3.4-11.5-5a40.4 40.4 0 01-12.3-5 12.5 12.5 0 01-5.5-10.4c0-4.1 1.7-7.5 5.1-10a21 21 0 0113-4c3.7 0 6.9.7 9.7 2.1a15.2 15.2 0 019 14h-4.7c0-3.6-1.2-6.6-3.7-8.8-2.6-2.3-6-3.4-10.2-3.4a16 16 0 00-9.9 2.8 8.6 8.6 0 00-3.7 7.2 8 8 0 003.3 6.7c2.2 1.8 5.8 3.3 10.6 4.6 4.9 1.4 8.5 2.7 11 4.2s4.4 3 5.7 5c1.2 2 1.9 4.4 1.9 7 0 4.3-1.7 7.7-5.1 10.3a21.8 21.8 0 01-13.5 3.9c-3.8 0-7.3-.7-10.5-2a14.7 14.7 0 01-9.7-14.1h4.6c0 3.7 1.4 6.7 4.3 8.9a18 18 0 0011.3 3.3c4.2 0 7.6-1 10.2-2.8a8.7 8.7 0 003.8-7.3zm53.6-10.8c0 5-.9 9.3-2.6 13a19.6 19.6 0 01-18.4 11.8c-6.3 0-11.4-2.3-15.3-6.8a27.1 27.1 0 01-5.9-18.3v-5.6c0-4.9 1-9.2 2.7-13a20 20 0 017.4-8.8c3.2-2 6.8-3 11-3 4.1 0 7.8 1 11 3s5.6 4.8 7.4 8.5c1.7 3.6 2.6 7.9 2.7 12.7v6.4zm-4.6-6c0-6.4-1.5-11.5-4.4-15.2-3-3.7-7-5.5-12.1-5.5-5 0-9 1.8-12 5.5a24 24 0 00-4.5 15.5v5.7c0 6.4 1.5 11.4 4.5 15.2 3 3.7 7 5.6 12 5.6 5.2 0 9.3-1.8 12.2-5.5 2.9-3.7 4.3-8.9 4.3-15.5v-5.7zm53.6 13.2c-.6 5.7-2.7 10-6.1 13-3.5 3-8 4.6-13.8 4.6a19 19 0 01-17.8-11.6 30.3 30.3 0 01-2.5-12.5v-7c0-4.9.8-9.1 2.5-12.8s4-6.6 7.2-8.6 6.8-3 11-3c5.7 0 10.3 1.5 13.6 4.6a20 20 0 015.9 13h-4.6c-1.1-9.2-6.1-13.8-15-13.8a14 14 0 00-11.7 5.5 23.9 23.9 0 00-4.3 15.2v6.6a24 24 0 004.2 15c2.8 3.7 6.7 5.5 11.5 5.5s8.4-1.1 10.8-3.4c2.4-2.3 4-5.7 4.5-10.3h4.6z"
  />
  <path
    fill="none"
    stroke="#fff"
    stroke-width=".9"
    stroke-linecap="round"
    stroke-linejoin="round"
    stroke-miterlimit="10"
    d="M80.3 174.8h205.9"
  />
  <path
    fill="#fff"
    d="M115.1 273.5l-.2-1a4 4 0 01-3 1.2c-1 0-1.9-.3-2.5-.9-.7-.6-1-1.3-1-2.2 0-1 .4-2 1.2-2.5.9-.6 2-1 3.5-1h1.8v-.7c0-.6-.2-1.1-.6-1.5s-1-.6-1.7-.6a3 3 0 00-1.6.5c-.4.3-.6.7-.6 1.2h-1.8c0-.5.2-1 .6-1.5s.8-.9 1.4-1.2a5 5 0 012.1-.4c1.2 0 2.2.3 2.8.9.7.6 1 1.4 1.1 2.5v4.8c0 1 .1 1.7.4 2.3v.1h-2zm-3-1.3c.7 0 1.2-.2 1.7-.5s.8-.6 1-1.1v-2.1h-1.3c-2.2 0-3.3.6-3.3 1.9 0 .5.2 1 .6 1.3s.8.5 1.4.5zm6.9-11.9c0-.3 0-.5.2-.7.2-.2.5-.3.8-.3s.6.1.8.3c.2.2.3.4.3.7 0 .3-.1.6-.3.7-.2.2-.4.3-.8.3s-.6 0-.8-.2a1 1 0 01-.3-.8zm1.9 13.2H119v-10.4h1.8v10.4zm6.5-1.2c.7 0 1.2-.2 1.7-.6.5-.4.7-.9.8-1.5h1.7c0 .6-.3 1.2-.7 1.7a4.4 4.4 0 01-3.5 1.8c-1.4 0-2.5-.5-3.4-1.4-.8-1-1.2-2.3-1.2-4v-.2c0-1 .2-2 .5-2.7s1-1.4 1.6-1.9 1.6-.6 2.5-.6c1.2 0 2.1.3 3 1 .7.7 1.1 1.7 1.2 2.8h-1.7c0-.7-.3-1.3-.8-1.7-.5-.4-1-.6-1.7-.6-1 0-1.6.3-2.1 1-.5.6-.8 1.5-.8 2.8v.3c0 1.2.3 2.1.8 2.8.5.6 1.2 1 2.1 1zm14.5-3.9c0 1.6-.4 2.9-1.1 3.9-.8 1-1.7 1.4-3 1.4a4 4 0 01-3-1.2v5h-1.7v-14.4h1.6v1.1c.8-.8 1.8-1.3 3.1-1.3s2.2.5 3 1.4 1 2.3 1 4v.1zm-1.8-.2c0-1.1-.3-2-.8-2.8-.5-.6-1.2-1-2-1-1.1 0-2 .5-2.5 1.5v5c.6.9 1.4 1.4 2.5 1.4.8 0 1.5-.4 2-1s.8-1.8.8-3zm9.9 5.3l-.2-1a4 4 0 01-3 1.2c-1 0-1.8-.3-2.5-.9a3 3 0 01-1-2.2c0-1 .4-2 1.3-2.5.8-.6 2-1 3.4-1h1.8v-.7c0-.6-.2-1.1-.6-1.5s-.9-.6-1.6-.6c-.7 0-1.2.2-1.6.5-.5.3-.7.7-.7 1.2h-1.8c0-.5.2-1 .6-1.5s.8-.9 1.5-1.2a5 5 0 012-.4c1.3 0 2.2.3 2.9.9.7.6 1 1.4 1 2.5v4.8c0 1 .2 1.7.4 2.3v.1h-1.8zm-2.9-1.3c.6 0 1.1-.2 1.6-.5s.9-.6 1.1-1.1v-2.1h-1.4c-2.2 0-3.3.6-3.3 1.9 0 .5.2 1 .6 1.3s.8.5 1.4.5zm6.9.4c0-.3 0-.6.2-.8.2-.2.4-.3.8-.3s.6.1.8.3c.2.2.3.5.3.8 0 .3 0 .5-.3.7-.2.2-.4.3-.8.3s-.6 0-.8-.3a1 1 0 01-.3-.7zm4.1-4.4a5.7 5.7 0 012.3-4.7c.7-.4 1.5-.6 2.4-.6 1.4 0 2.6.5 3.5 1.5.8 1 1.3 2.3 1.3 3.9v.1c0 1-.2 2-.6 2.8s-1 1.4-1.7 1.8-1.5.7-2.5.7c-1.4 0-2.5-.5-3.4-1.5-.9-1-1.3-2.2-1.3-3.9zm1.8.2c0 1.2.3 2.1.8 2.8s1.2 1 2.1 1c1 0 1.7-.3 2.2-1 .5-.7.8-1.7.8-3 0-1.1-.3-2-.8-2.8-.5-.7-1.3-1-2.2-1-.8 0-1.6.3-2.1 1s-.8 1.7-.8 3zm14.5-3.7a6 6 0 00-1 0c-1 0-1.9.4-2.3 1.4v7.4h-1.8v-10.4h1.8v1.2c.6-1 1.4-1.4 2.5-1.4l.8.1v1.7zm.6 3.5c0-1.6.5-2.9 1.2-3.9.8-1 1.8-1.4 3-1.4 1.3 0 2.3.5 3 1.4V263h1.7v10.2c0 1.3-.4 2.4-1.2 3.2s-1.9 1.1-3.2 1.1c-.8 0-1.5-.1-2.2-.5-.8-.3-1.3-.7-1.7-1.3l1-1c.7.9 1.6 1.4 2.7 1.4 1 0 1.6-.3 2-.8.5-.4.8-1.1.8-2v-1c-.7.9-1.7 1.3-3 1.3-1.1 0-2.1-.5-2.9-1.5-.7-1-1.1-2.3-1.1-4zm1.9.2c0 1.2.2 2.1.7 2.8s1.2 1 2 1c1.1 0 2-.5 2.5-1.5v-4.8c-.6-1-1.4-1.5-2.5-1.5-.8 0-1.5.4-2 1a5 5 0 00-.7 3zm9.5 6.3H185l5.9-15.2h1.5l-5.9 15.2zm13.4-3.9c0-.5-.2-1-.6-1.2-.3-.2-1-.5-1.9-.7a9 9 0 01-2.1-.6 3 3 0 01-1.2-1c-.2-.4-.4-.8-.4-1.3 0-.9.4-1.6 1.1-2.2.7-.6 1.7-.9 2.8-.9 1.2 0 2.1.3 2.9 1a3 3 0 011 2.3h-1.7c0-.5-.2-1-.6-1.3s-1-.5-1.6-.5c-.7 0-1.2.1-1.5.4-.4.3-.6.6-.6 1.1 0 .4.2.8.5 1l1.9.6c.9.2 1.6.4 2.1.7.6.3 1 .6 1.3 1 .2.4.4.9.4 1.4 0 1-.4 1.7-1.2 2.3a5 5 0 01-2.9.8c-.8 0-1.5-.1-2.2-.4-.6-.3-1.1-.7-1.5-1.3a3 3 0 01-.5-1.7h1.8c0 .6.2 1 .7 1.4.4.4 1 .6 1.7.6s1.3-.2 1.7-.5c.4-.2.6-.6.6-1zm3.2-2.6c0-1 .1-2 .5-2.7.4-.9 1-1.5 1.7-2 .7-.4 1.5-.6 2.5-.6 1.4 0 2.5.5 3.4 1.5.9 1 1.3 2.3 1.3 3.9v.1c0 1-.2 2-.6 2.8s-1 1.4-1.7 1.8-1.5.7-2.4.7c-1.5 0-2.6-.5-3.5-1.5-.9-1-1.3-2.2-1.3-3.9zm1.7.2c0 1.2.3 2.1.8 2.8s1.3 1 2.2 1c.9 0 1.6-.3 2.1-1 .6-.7.8-1.7.8-3 0-1.1-.2-2-.8-2.8-.5-.7-1.2-1-2.1-1-1 0-1.6.3-2.2 1s-.8 1.7-.8 3zm13.6 3.9c.7 0 1.2-.2 1.7-.6.5-.4.7-.9.8-1.5h1.7c0 .6-.3 1.2-.7 1.7a4.4 4.4 0 01-3.5 1.8c-1.4 0-2.5-.5-3.4-1.4-.8-1-1.2-2.3-1.2-4v-.2c0-1 .2-2 .5-2.7s1-1.4 1.6-1.9 1.6-.6 2.5-.6c1.2 0 2.1.3 3 1 .7.7 1.1 1.7 1.2 2.8h-1.7c0-.7-.3-1.3-.8-1.7-.5-.4-1-.6-1.7-.6-1 0-1.6.3-2.1 1-.5.6-.8 1.5-.8 2.8v.3c0 1.2.3 2.1.8 2.8.5.6 1.2 1 2.1 1zm13-3.5h2v1.4h-2v3.3h-1.8v-3.3h-6.4v-1l6.3-9.7h2v9.3zm-6.1 0h4.3v-6.9l-.2.4-4.1 6.5zm15.4 2c0-.5-.2-1-.5-1.2-.4-.2-1-.5-2-.7a9 9 0 01-2-.6 3 3 0 01-1.2-1 2 2 0 01-.4-1.3c0-.9.3-1.6 1-2.2.8-.6 1.7-.9 2.8-.9 1.2 0 2.2.3 3 1a3 3 0 011 2.3h-1.8c0-.5-.2-1-.6-1.3s-1-.5-1.6-.5c-.6 0-1.1.1-1.5.4-.4.3-.5.6-.5 1.1 0 .4.1.8.5 1l1.8.6c.9.2 1.6.4 2.2.7.5.3 1 .6 1.2 1 .3.4.4.9.4 1.4 0 1-.4 1.7-1.1 2.3-.8.5-1.7.8-3 .8-.8 0-1.5-.1-2.1-.4-.7-.3-1.2-.7-1.5-1.3a3 3 0 01-.6-1.7h1.8c0 .6.3 1 .7 1.4.5.4 1 .6 1.8.6.7 0 1.2-.2 1.6-.5.4-.2.6-.6.6-1zm3.2-2.6c0-1 .2-2 .6-2.7.4-.9 1-1.5 1.6-2 .7-.4 1.6-.6 2.5-.6 1.4 0 2.6.5 3.4 1.5 1 1 1.3 2.3 1.3 3.9v.1c0 1-.2 2-.5 2.8s-1 1.4-1.7 1.8-1.6.7-2.5.7c-1.4 0-2.6-.5-3.4-1.5-1-1-1.3-2.2-1.3-3.9zm1.8.2c0 1.2.2 2.1.8 2.8s1.2 1 2.1 1c1 0 1.6-.3 2.2-1 .5-.7.8-1.7.8-3 0-1.1-.3-2-.8-2.8-.6-.7-1.3-1-2.2-1-.9 0-1.6.3-2.1 1s-.8 1.7-.8 3z"
  />
  <path
    fill="#231f20"
    d="M328 316v1.2h-2.4v6h-1.4v-6h-2.4V316h6.1zm7.8 7.3l-.3-4.3v-2l-.7 2.1-1.3 4H332l-1.3-4-.5-2.1h-.1v2l-.3 4.3h-1.4l.5-7.3h2.2l1.2 3.6.5 1.8.6-1.8 1.2-3.6h2.1l.6 7.3h-1.5z"
  />
</svg>
